<svg fill="none" height="275" viewBox="0 0 399 275" width="399" xmlns="http://www.w3.org/2000/svg" xmlns:xlink="http://www.w3.org/1999/xlink"><filter id="a" color-interpolation-filters="sRGB" filterUnits="userSpaceOnUse" height="301.228" width="219.075" x="193.569" y=".522079"><feFlood flood-opacity="0" result="BackgroundImageFix"/><feColorMatrix in="SourceAlpha" type="matrix" values="0 0 0 0 0 0 0 0 0 0 0 0 0 0 0 0 0 0 127 0"/><feOffset dy="13.6922"/><feGaussianBlur stdDeviation="13.6922"/><feColorMatrix type="matrix" values="0 0 0 0 0 0 0 0 0 0.478431 0 0 0 0 1 0 0 0 0.3 0"/><feBlend in2="BackgroundImageFix" mode="normal" result="effect1_dropShadow"/><feColorMatrix in="SourceAlpha" type="matrix" values="0 0 0 0 0 0 0 0 0 0 0 0 0 0 0 0 0 0 127 0"/><feOffset dy=".68461"/><feGaussianBlur stdDeviation="1.02692"/><feColorMatrix type="matrix" values="0 0 0 0 0 0 0 0 0 0 0 0 0 0 0 0 0 0 0.05 0"/><feBlend in2="effect1_dropShadow" mode="normal" result="effect2_dropShadow"/><feBlend in="SourceGraphic" in2="effect2_dropShadow" mode="normal" result="shape"/></filter><filter id="b" color-interpolation-filters="sRGB" filterUnits="userSpaceOnUse" height="49.2919" width="49.2919" x="264.015" y="186.225"><feFlood flood-opacity="0" result="BackgroundImageFix"/><feGaussianBlur in="BackgroundImage" stdDeviation="6.8461"/><feComposite in2="SourceAlpha" operator="in" result="effect1_backgroundBlur"/><feBlend in="SourceGraphic" in2="effect1_backgroundBlur" mode="normal" result="shape"/></filter><filter id="c" color-interpolation-filters="sRGB" filterUnits="userSpaceOnUse" height="49.2919" width="49.2919" x="292.769" y="186.225"><feFlood flood-opacity="0" result="BackgroundImageFix"/><feGaussianBlur in="BackgroundImage" stdDeviation="6.8461"/><feComposite in2="SourceAlpha" operator="in" result="effect1_backgroundBlur"/><feBlend in="SourceGraphic" in2="effect1_backgroundBlur" mode="normal" result="shape"/></filter><clipPath id="d"><rect height="273.844" rx="13.6922" width="398.952" y=".522079"/></clipPath><clipPath id="e"><path d="m13.6924 14.2143h193.569v199.531h-193.569z"/></clipPath><clipPath id="f"><path d="m13.6924 38.5913h193.569v39.3274h-193.569z"/></clipPath><clipPath id="g"><path d="m52.0303 38.5913h155.23v39.3274h-155.23z"/></clipPath><clipPath id="h"><path d="m52.0303 38.5913h155.23v13.6922h-155.23z"/></clipPath><clipPath id="i"><rect height="3.42305" rx="1.71153" width="116.384" x="52.0303" y="57.7604"/></clipPath><clipPath id="j"><path d="m13.6924 97.9187h193.569v48.0228h-193.569z"/></clipPath><clipPath id="k"><path d="m52.0303 97.9187h155.23v48.0228h-155.23z"/></clipPath><clipPath id="l"><path d="m52.0303 97.9187h155.23v13.6922h-155.23z"/></clipPath><clipPath id="m"><rect height="3.42305" rx="1.71153" width="123.23" x="52.0303" y="117.088"/></clipPath><clipPath id="n"><path d="m13.6924 165.942h192.199v47.8043h-192.199z"/></clipPath><clipPath id="o"><path d="m52.0303 165.942h153.861v47.8043h-153.861z"/></clipPath><clipPath id="p"><path d="m52.0303 165.942h153.861v13.6922h-153.861z"/></clipPath><clipPath id="q"><rect height="3.42305" rx="1.71153" width="123.23" x="52.0303" y="185.111"/></clipPath><clipPath id="r"><rect height="246.46" rx="6.8461" width="164.306" x="220.953" y="14.2143"/></clipPath><clipPath id="s"><path d="m241.537 151.135h123v70.689h-123z"/></clipPath><clipPath id="t"><path d="m277.707 199.917h50.6611v21.9075h-50.6611z"/></clipPath><clipPath id="u"><path d="m349.661 27.9052h21.9075v50.6611h-21.9075z"/></clipPath><g clip-path="url(#d)"><g clip-path="url(#e)"><rect fill="#fff" fill-opacity=".6" height="4.37707" rx="2.18853" width="45.4121" x="13.6924" y="14.2143"/><g clip-path="url(#f)"><circle cx="26.0154" cy="50.9143" fill="#ff5a6d" r="12.323"/><path d="m26.2746 55.6997h1.2034v-9.6474h-1.1967l-2.5673 1.8452v1.2703l2.4536-1.7784h.107z" fill="#fff"/><g clip-path="url(#g)"><g clip-path="url(#h)"><path d="m52.9228 48.9374h1.2937v-7.2355h-1.2937zm2.9484 0h1.2485v-3.194c0-.8224.4613-1.3438 1.2034-1.3438.7572 0 1.1032.4312 1.1032 1.2836v3.2542h1.2485v-3.545c0-1.3037-.6669-2.0408-1.8904-2.0408-.7922 0-1.3187.356-1.5794.9427h-.0853v-.8374h-1.2485zm8.4339.0251c.2407 0 .4714-.02.6519-.0551v-.9628c-.1505.0151-.2457.0201-.4212.0201-.5215 0-.7371-.2307-.7371-.7772v-2.7629h1.1583v-.9677h-1.1583v-1.3438h-1.2686v1.3438h-.8524v.9677h.8524v3.0587c0 1.058.5164 1.4792 1.775 1.4792zm1.8954-.0251h1.2485v-3.184c0-.7822.5466-1.2786 1.379-1.2786.2156 0 .4212.0301.6217.0702v-1.1182c-.1203-.0351-.3159-.0602-.5064-.0602-.7221 0-1.2235.346-1.409.9327h-.0853v-.8424h-1.2485zm6.4984.1104c1.6397 0 2.6375-1.0731 2.6375-2.8481v-.0101c0-1.765-1.0028-2.838-2.6375-2.838-1.6296 0-2.6374 1.0781-2.6374 2.838v.0101c0 1.775.9928 2.8481 2.6374 2.8481zm0-1.0129c-.8674 0-1.3638-.6769-1.3638-1.8302v-.01c0-1.1533.4964-1.8352 1.3638-1.8352.8625 0 1.3589.6819 1.3589 1.8352v.01c0 1.1533-.4914 1.8302-1.3589 1.8302zm8.785.9276c.2407 0 .4713-.02.6518-.0551v-.9628c-.1504.0151-.2457.0201-.4212.0201-.5214 0-.7371-.2307-.7371-.7772v-2.7629h1.1583v-.9677h-1.1583v-1.3438h-1.2686v1.3438h-.8524v.9677h.8524v3.0587c0 1.058.5165 1.4792 1.7751 1.4792zm4.2119.0853c1.6397 0 2.6375-1.0731 2.6375-2.8481v-.0101c0-1.765-1.0028-2.838-2.6375-2.838-1.6296 0-2.6374 1.0781-2.6374 2.838v.0101c0 1.775.9928 2.8481 2.6374 2.8481zm0-1.0129c-.8674 0-1.3638-.6769-1.3638-1.8302v-.01c0-1.1533.4964-1.8352 1.3638-1.8352.8625 0 1.3589.6819 1.3589 1.8352v.01c0 1.1533-.4914 1.8302-1.3589 1.8302zm7.2707-5.4956c.4061 0 .7421-.3259.7421-.7371 0-.4062-.336-.7371-.7421-.7371-.4112 0-.7471.3309-.7471.7371 0 .4112.3359.7371.7471.7371zm-.6268 6.3981h1.2485v-5.4805h-1.2485zm6.0321.1806c2.1112 0 3.4202-1.4692 3.4202-3.7958v-.01c0-2.3317-1.314-3.7908-3.4202-3.7908-2.1009 0-3.4247 1.4591-3.4247 3.7908v.01c0 2.3266 1.3037 3.7958 3.4247 3.7958zm0-1.1182c-1.3037 0-2.106-1.053-2.106-2.6776v-.01c0-1.6347.8224-2.6726 2.106-2.6726 1.2837 0 2.1012 1.0379 2.1012 2.6726v.01c0 1.6246-.8125 2.6776-2.1012 2.6776zm7.4162 1.1182c1.735 0 2.823-.8825 2.823-2.2915v-.0051c0-1.0931-.637-1.7048-2.161-2.0257l-.777-.1655c-.903-.1905-1.269-.5114-1.269-1.0229v-.005c0-.6167.572-.9928 1.374-.9928.827-.005 1.364.3961 1.454.9577l.01.0602h1.239l-.005-.0652c-.091-1.1633-1.089-2.0408-2.693-2.0408-1.565 0-2.678.8725-2.678 2.1661v.0051c0 1.078.642 1.77 2.121 2.0809l.777.1604c.933.2006 1.309.5165 1.309 1.038v.005c0 .6217-.612 1.053-1.484 1.053-.918 0-1.564-.4012-1.625-1.0079l-.005-.0501h-1.253l.005.0702c.09 1.2485 1.158 2.0759 2.838 2.0759zm7.015-.1806h2.712c2.167 0 3.405-1.3287 3.405-3.6453v-.01c0-2.2665-1.253-3.5802-3.405-3.5802h-2.712zm1.293-1.088v-5.0594h1.249c1.419 0 2.256.9226 2.256 2.5121v.0101c0 1.6246-.817 2.5372-2.256 2.5372zm8.525 1.1984c1.489 0 2.221-.8575 2.396-1.5645l.016-.0451h-1.189l-.015.0351c-.12.2507-.506.5917-1.183.5917-.848 0-1.379-.5717-1.394-1.5544h3.831v-.4112c0-1.6547-.963-2.7478-2.523-2.7478-1.559 0-2.557 1.1282-2.557 2.8531v.005c0 1.745.988 2.8381 2.618 2.8381zm-.045-4.7184c.697 0 1.203.4462 1.288 1.3438h-2.602c.095-.8725.617-1.3438 1.314-1.3438zm5.826 4.7184c1.349 0 2.327-.697 2.327-1.74v-.01c0-.7973-.507-1.2536-1.58-1.4942l-.887-.1956c-.592-.1354-.823-.3309-.823-.6519v-.005c0-.4111.401-.6819.958-.6819.587 0 .948.2808 1.038.6268l.005.015h1.173v-.01c-.08-.8875-.877-1.5494-2.211-1.5494-1.294 0-2.196.6819-2.196 1.6697v.005c0 .8073.496 1.2987 1.539 1.5294l.888.2006c.601.1353.842.3459.842.6668v.0101c0 .4111-.431.6919-1.053.6919s-.988-.2657-1.118-.6468l-.005-.01h-1.239v.01c.106.9276.948 1.5695 2.342 1.5695zm4.227-6.5085c.406 0 .742-.3259.742-.7371 0-.4062-.336-.7371-.742-.7371-.411 0-.747.3309-.747.7371 0 .4112.336.7371.747.7371zm-.627 6.3981h1.249v-5.4805h-1.249zm5.14 1.9255c1.599 0 2.612-.7973 2.612-2.0608v-5.3452h-1.248v.9026h-.065c-.311-.6218-.903-.9929-1.66-.9929-1.414 0-2.277 1.0931-2.277 2.6776v.0101c0 1.5544.863 2.6274 2.252 2.6274.757 0 1.354-.3209 1.67-.9076h.085v1.048c0 .702-.497 1.0981-1.349 1.0981-.697 0-1.113-.2457-1.198-.5967l-.005-.015h-1.249l-.005.015c.125.9227.993 1.5394 2.437 1.5394zm0-3.174c-.868 0-1.359-.6669-1.359-1.6346v-.0101c0-.9677.491-1.6396 1.359-1.6396.862 0 1.389.6719 1.389 1.6396v.0101c0 .9677-.522 1.6346-1.389 1.6346zm4.142 1.2485h1.248v-3.194c0-.8224.461-1.3438 1.204-1.3438.757 0 1.103.4312 1.103 1.2836v3.2542h1.248v-3.545c0-1.3037-.667-2.0408-1.89-2.0408-.792 0-1.319.356-1.58.9427h-.085v-.8374h-1.248z" fill="#fff"/><rect fill="#ff5a6d" height="13.6922" rx="3.42305" width="28.7536" x="178.507" y="38.5913"/><path d="m185.608 49.1127c1.317 0 2.269-.9213 2.269-2.1816v-.0087c0-1.1994-.856-2.0859-2.051-2.0859-.856 0-1.421.4476-1.652.9517h-.082c.017-1.3167.452-2.4249 1.547-2.4249.591 0 .999.3042 1.173.7823l.018.0434h.964l-.008-.0521c-.209-.9474-1.035-1.5992-2.143-1.5992-1.551 0-2.477 1.2515-2.477 3.3722v.0087c0 2.3075 1.182 3.1941 2.442 3.1941zm-1.325-2.1816v-.0043c0-.7562.574-1.3037 1.325-1.3037.761 0 1.308.5562 1.308 1.3254v.0087c0 .7518-.582 1.3385-1.316 1.3385-.739 0-1.317-.5997-1.317-1.3646zm5.558-2.1163c.361 0 .635-.2825.635-.6345 0-.3563-.274-.6344-.635-.6344s-.639.2781-.639.6344c0 .352.278.6345.639.6345zm0 3.2853c.361 0 .635-.2824.635-.6344 0-.3564-.274-.6345-.635-.6345s-.639.2781-.639.6345c0 .352.278.6344.639.6344zm4.268 1.0126c1.442 0 2.316-1.2646 2.316-3.2854v-.0087c0-2.0207-.874-3.2809-2.316-3.2809-1.448 0-2.317 1.2602-2.317 3.2809v.0087c0 2.0208.869 3.2854 2.317 3.2854zm0-.8083c-.844 0-1.335-.943-1.335-2.4771v-.0087c0-1.534.491-2.4683 1.335-2.4683.838 0 1.334.9343 1.334 2.4683v.0087c0 1.5341-.496 2.4771-1.334 2.4771zm5.818.7735c1.395 0 2.377-.7475 2.377-1.8121v-.0087c0-.7909-.569-1.4211-1.39-1.5992v-.0218c.704-.1999 1.16-.7257 1.16-1.3906v-.0087c0-.9604-.895-1.6644-2.147-1.6644-1.247 0-2.146.704-2.146 1.6644v.0087c0 .6649.46 1.1907 1.164 1.3906v.0218c-.821.1781-1.39.8083-1.39 1.5992v.0087c0 1.0646.982 1.8121 2.372 1.8121zm0-3.7677c-.699 0-1.182-.4085-1.182-.9821v-.0087c0-.5736.483-.9734 1.182-.9734.7 0 1.182.3998 1.182.9734v.0087c0 .5736-.478.9821-1.182.9821zm0 2.9855c-.799 0-1.368-.4563-1.368-1.0908v-.0087c0-.6431.564-1.1081 1.368-1.1081.809 0 1.374.465 1.374 1.1081v.0087c0 .6345-.57 1.0908-1.374 1.0908z" fill="#fff"/></g><g clip-path="url(#i)"><rect fill="#ff5a6d" height="3.42305" rx="1.71153" width="116.384" x="52.0303" y="57.7604"/><rect fill="#fff" height="2.05383" rx="1.02692" width="15.0614" x="52.7148" y="58.445"/></g><g fill="#fff" fill-opacity=".3"><rect height="2.78149" rx="1.39075" width="95.9614" x="52.0303" y="66.6604"/><rect height="3" rx="1.5" width="119" x="52.0303" y="74.9187"/></g></g></g><g clip-path="url(#j)"><circle cx="26.0154" cy="110.242" fill="#000" fill-opacity=".2" r="12.323"/><path d="m23.3009 115.026h6.2444v-1.083h-4.573v-.107l2.1929-2.266c1.7449-1.798 2.2196-2.601 2.2196-3.704v-.013c0-1.558-1.2903-2.701-2.9751-2.701-1.8452 0-3.169 1.23-3.1757 2.941l.0134.007 1.1499.007.0067-.014c0-1.136.7689-1.892 1.9255-1.892 1.1365 0 1.8252.763 1.8252 1.779v.013c0 .843-.3611 1.344-1.5912 2.674l-3.2626 3.53z" fill="#fff"/><g clip-path="url(#k)"><g clip-path="url(#l)"><path d="m52.9228 108.265h2.7127c2.1662 0 3.4047-1.329 3.4047-3.646v-.01c0-2.266-1.2536-3.58-3.4047-3.58h-2.7127zm1.2937-1.088v-5.06h1.2485c1.4191 0 2.2564.923 2.2564 2.513v.01c0 1.624-.8173 2.537-2.2564 2.537zm8.5242 1.198c1.4892 0 2.2213-.857 2.3968-1.564l.015-.045h-1.1883l-.0151.035c-.1203.25-.5064.591-1.1834.591-.8474 0-1.3789-.571-1.3939-1.554h3.8309v-.411c0-1.655-.9628-2.748-2.5222-2.748s-2.5573 1.128-2.5573 2.853v.005c0 1.745.9879 2.838 2.6175 2.838zm-.0452-4.718c.697 0 1.2035.446 1.2887 1.344h-2.6024c.0953-.873.6168-1.344 1.3137-1.344zm5.8266 4.718c1.3488 0 2.3266-.697 2.3266-1.74v-.01c0-.797-.5064-1.253-1.5795-1.494l-.8875-.196c-.5917-.135-.8223-.331-.8223-.651v-.005c0-.412.4011-.682.9577-.682.5866 0 .9477.28 1.0379.626l.005.015h1.1734v-.01c-.0803-.887-.8775-1.549-2.2113-1.549-1.2937 0-2.1962.682-2.1962 1.67v.005c0 .807.4964 1.298 1.5393 1.529l.8875.201c.6018.135.8424.346.8424.667v.01c0 .411-.4312.692-1.053.692-.6217 0-.9878-.266-1.1181-.647l-.005-.01h-1.2386v.01c.1053.927.9477 1.569 2.3417 1.569zm4.227-6.508c.4061 0 .7421-.326.7421-.737 0-.407-.336-.738-.7421-.738-.4112 0-.7471.331-.7471.738 0 .411.3359.737.7471.737zm-.6268 6.398h1.2486v-5.481h-1.2486zm5.1396 1.925c1.5995 0 2.6124-.797 2.6124-2.061v-5.345h-1.2485v.903h-.0652c-.3109-.622-.9026-.993-1.6597-.993-1.414 0-2.2765 1.093-2.2765 2.678v.01c0 1.554.8625 2.627 2.2514 2.627.7572 0 1.3538-.321 1.6697-.907h.0853v1.048c0 .701-.4964 1.098-1.3488 1.098-.697 0-1.1132-.246-1.1984-.597l-.0051-.015h-1.2485l-.005.015c.1253.923.9928 1.539 2.4369 1.539zm0-3.174c-.8675 0-1.3589-.667-1.3589-1.634v-.01c0-.968.4914-1.64 1.3589-1.64.8624 0 1.3889.672 1.3889 1.64v.01c0 .967-.5214 1.634-1.3889 1.634zm4.1418 1.249h1.2485v-3.194c0-.823.4613-1.344 1.2034-1.344.7572 0 1.1032.431 1.1032 1.284v3.254h1.2485v-3.545c0-1.304-.6669-2.041-1.8904-2.041-.7922 0-1.3187.356-1.5795.943h-.0852v-.838h-1.2485zm12.2397.18c1.9305 0 3.164-1.198 3.164-3.068v-.903h-3.0035v.988h1.7349l-.005.15c-.0151 1.028-.7672 1.715-1.8703 1.715-1.2887 0-2.101-1.028-2.101-2.687v-.01c0-1.635.7973-2.663 2.0608-2.663.9277 0 1.5896.461 1.8252 1.254l.0151.05h1.2836l-.005-.05c-.2457-1.415-1.4491-2.372-3.1189-2.372-2.0608 0-3.3795 1.479-3.3795 3.791v.01c0 2.336 1.3037 3.795 3.3996 3.795zm6.353-.07c.7926 0 1.3486-.356 1.6046-.943h.085v.833h1.249v-5.481h-1.249v3.194c0 .823-.431 1.344-1.238 1.344-.7524 0-1.0683-.431-1.0683-1.278v-3.26h-1.2486v3.545c0 1.304.6318 2.046 1.8653 2.046zm5.1046-6.508c.406 0 .742-.326.742-.737 0-.407-.336-.738-.742-.738-.411 0-.747.331-.747.738 0 .411.336.737.747.737zm-.627 6.398h1.249v-5.481h-1.249zm4.759.09c.772 0 1.364-.351 1.664-.948h.086v.858h1.253v-7.602h-1.253v2.994h-.086c-.285-.592-.912-.963-1.664-.963-1.389 0-2.247 1.083-2.247 2.828v.01c0 1.735.873 2.823 2.247 2.823zm.391-1.053c-.853 0-1.369-.667-1.369-1.77v-.01c0-1.103.521-1.775 1.369-1.775.847 0 1.379.677 1.379 1.775v.01c0 1.098-.527 1.77-1.379 1.77zm6.528 1.073c1.49 0 2.222-.857 2.397-1.564l.015-.045h-1.188l-.015.035c-.121.25-.507.591-1.184.591-.847 0-1.379-.571-1.394-1.554h3.831v-.411c0-1.655-.962-2.748-2.522-2.748-1.559 0-2.557 1.128-2.557 2.853v.005c0 1.745.988 2.838 2.617 2.838zm-.045-4.718c.697 0 1.204.446 1.289 1.344h-2.603c.096-.873.617-1.344 1.314-1.344zm3.806 4.608h1.249v-7.602h-1.249zm3.47-6.398c.406 0 .742-.326.742-.737 0-.407-.336-.738-.742-.738-.411 0-.747.331-.747.738 0 .411.336.737.747.737zm-.627 6.398h1.249v-5.481h-1.249zm2.783 0h1.248v-3.194c0-.823.462-1.344 1.204-1.344.757 0 1.103.431 1.103 1.284v3.254h1.249v-3.545c0-1.304-.667-2.041-1.891-2.041-.792 0-1.319.356-1.579.943h-.086v-.838h-1.248zm8.624.11c1.49 0 2.222-.857 2.397-1.564l.015-.045h-1.188l-.015.035c-.12.25-.507.591-1.184.591-.847 0-1.378-.571-1.393-1.554h3.83v-.411c0-1.655-.962-2.748-2.522-2.748-1.559 0-2.557 1.128-2.557 2.853v.005c0 1.745.988 2.838 2.617 2.838zm-.045-4.718c.697 0 1.204.446 1.289 1.344h-2.602c.095-.873.616-1.344 1.313-1.344zm5.827 4.718c1.349 0 2.326-.697 2.326-1.74v-.01c0-.797-.506-1.253-1.579-1.494l-.888-.196c-.591-.135-.822-.331-.822-.651v-.005c0-.412.401-.682.958-.682.586 0 .948.28 1.038.626l.005.015h1.173v-.01c-.08-.887-.877-1.549-2.211-1.549-1.294 0-2.196.682-2.196 1.67v.005c0 .807.496 1.298 1.539 1.529l.887.201c.602.135.843.346.843.667v.01c0 .411-.431.692-1.053.692s-.988-.266-1.118-.647l-.005-.01h-1.239v.01c.105.927.948 1.569 2.342 1.569z" fill="#fff"/><rect fill="#000" fill-opacity=".2" height="13.6922" rx="3.42305" width="28.7536" x="178.507" y="97.9187"/><path d="m185.439 101.865c-1.317 0-2.273.921-2.273 2.182v.008c0 1.2.861 2.086 2.056 2.086.851 0 1.421-.447 1.647-.952h.087c-.022 1.317-.452 2.425-1.552 2.425-.586 0-.995-.304-1.173-.782l-.013-.043h-.969l.013.052c.204.947 1.03 1.599 2.142 1.599 1.552 0 2.477-1.252 2.477-3.377v-.008c0-2.303-1.186-3.19-2.442-3.19zm-.004 3.49c-.757 0-1.308-.557-1.308-1.326v-.008c0-.752.586-1.339 1.321-1.339.738 0 1.316.6 1.316 1.365v.004c0 .756-.578 1.304-1.329 1.304zm4.38-1.213c.361 0 .635-.282.635-.634 0-.357-.274-.635-.635-.635s-.639.278-.639.635c0 .352.278.634.639.634zm0 3.286c.361 0 .635-.283.635-.635 0-.356-.274-.634-.635-.634s-.639.278-.639.634c0 .352.278.635.639.635zm4.267 1.012c1.443 0 2.317-1.265 2.317-3.285v-.009c0-2.021-.874-3.281-2.317-3.281-1.447 0-2.316 1.26-2.316 3.281v.009c0 2.02.869 3.285 2.316 3.285zm0-.808c-.843 0-1.334-.943-1.334-2.477v-.009c0-1.534.491-2.468 1.334-2.468.839 0 1.335.934 1.335 2.468v.009c0 1.534-.496 2.477-1.335 2.477zm3.568.656h4.224v-.83h-2.898v-.087l1.329-1.325c1.139-1.13 1.469-1.678 1.469-2.391v-.013c0-1.034-.86-1.777-2.029-1.777-1.26 0-2.147.808-2.151 1.956l.008.008h.913l.004-.013c0-.686.47-1.147 1.174-1.147.686 0 1.108.452 1.108 1.065v.013c0 .508-.239.83-1.069 1.695l-2.082 2.185z" fill="#fff"/></g><g clip-path="url(#m)"><rect fill="#000" fill-opacity=".2" height="3.42305" rx="1.71153" width="123.23" x="52.0303" y="117.088"/><rect fill="#fff" height="2.05383" rx="1.02692" width="8.21532" x="52.7148" y="117.772"/></g><g fill="#fff" fill-opacity=".3"><rect height="3" rx="1.5" width="105" x="52.0303" y="125.988"/><rect height="3" rx="1.5" width="66" x="52.0303" y="134.465"/><rect height="3" rx="1.5" width="66" x="52.0303" y="142.941"/></g></g></g><g clip-path="url(#n)"><circle cx="26.0154" cy="178.264" fill="#000" fill-opacity=".2" r="12.323"/><path d="m26.4231 183.21c1.9321 0 3.3495-1.19 3.3495-2.801v-.013c0-1.371-.9561-2.247-2.3601-2.367v-.027c1.2035-.254 2.0459-1.069 2.0459-2.259v-.014c0-1.464-1.2101-2.487-3.0487-2.487-1.8051 0-3.0487 1.05-3.2024 2.621l-.0067.067h1.1566l.0067-.067c.1003-.976.9092-1.578 2.0458-1.578 1.1767 0 1.8386.582 1.8386 1.591v.014c0 .962-.8023 1.671-1.9523 1.671h-1.1566v1.016h1.2101c1.3505 0 2.1996.662 2.1996 1.845v.014c0 1.023-.8624 1.731-2.126 1.731-1.2837 0-2.1595-.655-2.2531-1.604l-.0067-.067h-1.1566l.0067.08c.127 1.525 1.4173 2.634 3.4097 2.634z" fill="#fff"/><g clip-path="url(#o)"><g clip-path="url(#p)"><path d="m55.9414 176.468c1.6697 0 2.8681-.968 3.0587-2.417v-.035h-1.2686l-.0051.025c-.1855.797-.8674 1.309-1.785 1.309-1.2335 0-2.0007-1.028-2.0007-2.678v-.01c0-1.644.7672-2.672 1.9957-2.672.9126 0 1.6045.566 1.79 1.424l.0051.02h1.2686v-.04c-.1705-1.479-1.4191-2.522-3.0637-2.522-2.0509 0-3.3195 1.449-3.3195 3.795v.01c0 2.337 1.2737 3.791 3.3245 3.791zm6.7391-.07c1.6397 0 2.6375-1.073 2.6375-2.848v-.01c0-1.765-1.0029-2.838-2.6375-2.838-1.6296 0-2.6375 1.078-2.6375 2.838v.01c0 1.775.9928 2.848 2.6375 2.848zm0-1.013c-.8675 0-1.3639-.677-1.3639-1.83v-.01c0-1.153.4964-1.835 1.3639-1.835.8625 0 1.3589.682 1.3589 1.835v.01c0 1.153-.4914 1.83-1.3589 1.83zm3.9412.903h1.2485v-7.602h-1.2485zm5.1947.11c1.6397 0 2.6375-1.073 2.6375-2.848v-.01c0-1.765-1.0028-2.838-2.6375-2.838-1.6296 0-2.6374 1.078-2.6374 2.838v.01c0 1.775.9928 2.848 2.6374 2.848zm0-1.013c-.8674 0-1.3638-.677-1.3638-1.83v-.01c0-1.153.4964-1.835 1.3638-1.835.8625 0 1.3589.682 1.3589 1.835v.01c0 1.153-.4914 1.83-1.3589 1.83zm3.8911.903h1.2485v-3.184c0-.783.5466-1.279 1.3789-1.279.2157 0 .4212.03.6218.07v-1.118c-.1203-.035-.3159-.06-.5064-.06-.7221 0-1.2235.346-1.409.932h-.0853v-.842h-1.2485zm6.2227.11c1.3488 0 2.3266-.697 2.3266-1.74v-.01c0-.797-.5065-1.254-1.5795-1.494l-.8875-.196c-.5917-.135-.8224-.331-.8224-.652v-.005c0-.411.4012-.682.9577-.682.5867 0 .9477.281 1.038.627l.005.015h1.1733v-.01c-.0802-.887-.8775-1.549-2.2112-1.549-1.2937 0-2.1963.682-2.1963 1.669v.006c0 .807.4964 1.298 1.5394 1.529l.8875.2c.6017.136.8424.346.8424.667v.01c0 .412-.4312.692-1.053.692s-.9878-.265-1.1182-.647l-.005-.01h-1.2385v.01c.1053.928.9477 1.57 2.3417 1.57zm7.8171-.02c.7221 0 1.3037-.311 1.6046-.843h.0852v.753h1.2335v-3.746c0-1.158-.7922-1.84-2.2012-1.84-1.3037 0-2.1862.611-2.3066 1.534l-.005.045h1.1784l.005-.02c.1253-.361.4964-.566 1.068-.566.6719 0 1.0279.3 1.0279.847v.471l-1.409.086c-1.3337.08-2.0809.651-2.0809 1.629v.01c0 .998.7572 1.64 1.8001 1.64zm-.5666-1.7v-.01c0-.451.326-.707 1.0229-.752l1.2335-.08v.441c0 .652-.5565 1.143-1.3087 1.143-.5515 0-.9477-.276-.9477-.742zm4.9892 1.61h1.2485v-3.194c0-.823.4614-1.344 1.2035-1.344.7571 0 1.1031.431 1.1031 1.283v3.255h1.2485v-3.545c0-1.304-.6669-2.041-1.8903-2.041-.7923 0-1.3188.356-1.5795.942h-.0853v-.837h-1.2485zm8.2531.09c.773 0 1.364-.351 1.665-.948h.085v.858h1.254v-7.602h-1.254v2.994h-.085c-.286-.592-.913-.963-1.665-.963-1.389 0-2.246 1.083-2.246 2.828v.01c0 1.735.872 2.823 2.246 2.823zm.391-1.053c-.852 0-1.368-.667-1.368-1.77v-.01c0-1.103.521-1.775 1.368-1.775.848 0 1.379.677 1.379 1.775v.01c0 1.098-.526 1.77-1.379 1.77zm10.144 1.143c1.931 0 3.164-1.198 3.164-3.069v-.902h-3.003v.988h1.735l-.005.15c-.015 1.028-.768 1.715-1.871 1.715-1.288 0-2.101-1.028-2.101-2.688v-.01c0-1.634.798-2.662 2.061-2.662.928 0 1.59.461 1.825 1.253l.015.05h1.284l-.005-.05c-.246-1.414-1.449-2.371-3.119-2.371-2.061 0-3.379 1.479-3.379 3.79v.01c0 2.337 1.303 3.796 3.399 3.796zm4.538-.18h1.249v-3.184c0-.783.546-1.279 1.379-1.279.215 0 .421.03.621.07v-1.118c-.12-.035-.316-.06-.506-.06-.722 0-1.224.346-1.409.932h-.085v-.842h-1.249zm5.696.09c.722 0 1.304-.311 1.605-.843h.085v.753h1.234v-3.746c0-1.158-.793-1.84-2.202-1.84-1.303 0-2.186.611-2.306 1.534l-.005.045h1.178l.005-.02c.125-.361.497-.566 1.068-.566.672 0 1.028.3 1.028.847v.471l-1.409.086c-1.334.08-2.081.651-2.081 1.629v.01c0 .998.757 1.64 1.8 1.64zm-.566-1.7v-.01c0-.451.326-.707 1.023-.752l1.233-.08v.441c0 .652-.556 1.143-1.309 1.143-.551 0-.947-.276-.947-.742zm6.964 1.7c.773 0 1.364-.351 1.665-.948h.085v.858h1.254v-7.602h-1.254v2.994h-.085c-.286-.592-.912-.963-1.665-.963-1.388 0-2.246 1.083-2.246 2.828v.01c0 1.735.873 2.823 2.246 2.823zm.392-1.053c-.853 0-1.369-.667-1.369-1.77v-.01c0-1.103.521-1.775 1.369-1.775.847 0 1.378.677 1.378 1.775v.01c0 1.098-.526 1.77-1.378 1.77zm4.823-5.436c.406 0 .742-.325.742-.737 0-.406-.336-.737-.742-.737-.411 0-.747.331-.747.737 0 .412.336.737.747.737zm-.627 6.399h1.249v-5.481h-1.249zm5.13.11c1.489 0 2.221-.858 2.397-1.565l.015-.045h-1.188l-.016.035c-.12.251-.506.592-1.183.592-.847 0-1.379-.571-1.394-1.554h3.831v-.411c0-1.655-.963-2.748-2.522-2.748-1.56 0-2.557 1.128-2.557 2.853v.005c0 1.745.987 2.838 2.617 2.838zm-.045-4.718c.697 0 1.203.446 1.289 1.343h-2.603c.095-.872.617-1.343 1.314-1.343zm3.756 4.608h1.248v-3.194c0-.823.461-1.344 1.204-1.344.757 0 1.103.431 1.103 1.283v3.255h1.248v-3.545c0-1.304-.667-2.041-1.89-2.041-.792 0-1.319.356-1.58.942h-.085v-.837h-1.248zm8.434.025c.24 0 .471-.02.651-.055v-.963c-.15.015-.245.02-.421.02-.521 0-.737-.231-.737-.777v-2.763h1.158v-.968h-1.158v-1.344h-1.269v1.344h-.852v.968h.852v3.058c0 1.058.517 1.48 1.776 1.48zm3.896.085c1.348 0 2.326-.697 2.326-1.74v-.01c0-.797-.506-1.254-1.579-1.494l-.888-.196c-.592-.135-.822-.331-.822-.652v-.005c0-.411.401-.682.958-.682.586 0 .947.281 1.038.627l.005.015h1.173v-.01c-.08-.887-.878-1.549-2.211-1.549-1.294 0-2.197.682-2.197 1.669v.006c0 .807.497 1.298 1.54 1.529l.887.2c.602.136.843.346.843.667v.01c0 .412-.432.692-1.053.692-.622 0-.988-.265-1.119-.647l-.005-.01h-1.238v.01c.105.928.948 1.57 2.342 1.57z" fill="#fff"/><rect fill="#000" fill-opacity=".2" height="13.6922" rx="3.42305" width="27.3844" x="178.507" y="165.942"/><path d="m185.439 169.888c-1.317 0-2.273.921-2.273 2.181v.009c0 1.199.861 2.086 2.056 2.086.851 0 1.421-.448 1.647-.952h.087c-.022 1.317-.452 2.425-1.552 2.425-.586 0-.995-.304-1.173-.782l-.013-.044h-.969l.013.053c.204.947 1.03 1.599 2.142 1.599 1.552 0 2.477-1.252 2.477-3.377v-.008c0-2.304-1.186-3.19-2.442-3.19zm-.004 3.489c-.757 0-1.308-.556-1.308-1.325v-.009c0-.752.586-1.338 1.321-1.338.738 0 1.316.6 1.316 1.364v.005c0 .756-.578 1.303-1.329 1.303zm4.38-1.212c.361 0 .635-.283.635-.635 0-.356-.274-.634-.635-.634s-.639.278-.639.634c0 .352.278.635.639.635zm0 3.285c.361 0 .635-.282.635-.634 0-.357-.274-.635-.635-.635s-.639.278-.639.635c0 .352.278.634.639.634zm4.254.978c1.33 0 2.273-.773 2.273-1.851v-.009c0-.878-.617-1.434-1.538-1.517v-.021c.765-.161 1.321-.683 1.321-1.46v-.009c0-.969-.817-1.638-2.064-1.638-1.226 0-2.06.699-2.156 1.755l-.004.048h.913l.004-.043c.061-.591.547-.961 1.243-.961.708 0 1.117.357 1.117.965v.009c0 .582-.487 1.003-1.204 1.003h-.735v.757h.765c.835 0 1.347.395 1.347 1.103v.009c0 .617-.517 1.047-1.282 1.047-.777 0-1.303-.399-1.364-.969l-.004-.043h-.93l.004.052c.082 1.039.956 1.773 2.294 1.773zm5.046-.117h.973v-6.271h-.973l-1.652 1.173v.956l1.578-1.125h.074z" fill="#fff"/></g><g clip-path="url(#q)"><rect fill="#000" fill-opacity=".2" height="3.42305" rx="1.71153" width="123.23" x="52.0303" y="185.111"/><rect fill="#fff" height="2.05383" rx="1.02692" width="49.2919" x="52.7148" y="185.795"/></g><g fill="#fff" fill-opacity=".3"><rect height="2.78149" rx="1.39075" width="95.9614" x="52.0303" y="194.011"/><rect height="3" rx="1.5" width="111" x="52.0303" y="202.269"/><rect height="3" rx="1.5" width="61" x="52.0303" y="210.746"/></g></g></g></g><g filter="url(#a)"><g clip-path="url(#r)"><rect fill="#fff" height="246.46" rx="6.8461" width="164.306" x="220.953" y="14.2143"/><rect fill="#007aff" height="246.46" rx="6.8461" width="164.306" x="220.953" y="14.2143"/><path d="m251.419 88.2948c-4.781 4.5845-8.538 12.7492-5.705 17.4062 1.608 2.641 4.863 3.378 15.986 3.964 20.532 1.083 36.119-.019 37.552-.126 14.395-1.067 12.145-1.519 22.058-2.007 11.212-.552 16.331-.083 24.97-2.169 6.942-1.676 10.951-2.644 14.936-6.1109 8.861-7.7089 8.648-19.9831 8.612-22.0102-.048-2.7819-.589-12.3569-7.655-20.0961-10.645-11.6582-30.577-13.1073-41.15-5.2634-12.38 9.1851-4.865 25.8738-16.029 31.819-9.856 5.2492-19.538-5.7237-41.441-1.253-3.256.6647-8.048 1.9292-12.134 5.8464z" fill="#491eb8" opacity=".43"/><path d="m244.738 121.427c-1.489 0-2.694-.359-3.507-1.283-2.316-2.634-.787-9.185 2.975-12.745 4.072-3.852 9.789-3.032 19.262-1.674 3.282.471 7.003 1.004 11.26 1.429 9.284.926 18.909 1.083 28.61.466.051-.003.092.035.095.085.003.049-.034.092-.084.095-9.71.617-19.346.461-28.639-.467-4.26-.425-7.983-.959-11.268-1.43-9.419-1.35-15.104-2.166-19.112 1.627-3.701 3.502-5.224 9.924-2.964 12.495 2.011 2.288 6.637.944 11.993-.612 1.459-.424 2.969-.863 4.496-1.248 11.491-2.899 18.188-1.249 24.664.348 5.807 1.432 11.811 2.911 21.334 1.257 9.734-1.692 15.888-5.326 21.318-8.532 6.304-3.723 11.284-6.663 19.151-4.661 4.119 1.048 7.162 3.006 9.607 4.579 3.039 1.955 5.44 3.5 8.331 2.396 2.785-1.063 4.966-4.192 6.141-8.811 1.058-4.16 1.19-9.2503.353-13.6164-2.464-12.8557-15.053-21.2473-25.647-22.6161-6.328-.8181-9.984 1.0672-14.219 3.2497-3.976 2.0494-8.483 4.3723-16.123 4.7399-7.948.3829-12.729-1.617-17.793-3.7335-4.448-1.8592-9.048-3.782-16.088-4.0955-.05-.0024-.088-.0443-.086-.0941.002-.0485.042-.0861.09-.0861.001 0 .003 0 .004.0001 7.072.3151 11.687 2.244 16.15 4.1092 5.044 2.1085 9.81 4.099 17.714 3.72 7.602-.3659 12.09-2.6792 16.05-4.7202 4.261-2.196 7.942-4.0926 14.324-3.2683 10.657 1.3769 23.321 9.8219 25.801 22.7612.842 4.3908.709 9.5101-.355 13.6941-1.19 4.678-3.411 7.851-6.252 8.936-2.976 1.136-5.411-.431-8.493-2.414-2.56-1.647-5.463-3.514-9.553-4.555-7.797-1.984-12.747.939-19.015 4.641-5.443 3.214-11.613 6.857-21.379 8.554-9.56 1.663-15.583.177-21.408-1.259-6.752-1.665-13.13-3.237-24.577-.348-1.524.384-3.032.822-4.49 1.246-3.306.96-6.336 1.841-8.671 1.841z" fill="#76f7ff" opacity=".2"/><path d="m330.985 99.4512c8.754 0 15.852-7.097 15.852-15.8518s-7.098-15.852-15.852-15.852c-8.755 0-15.852 7.0972-15.852 15.852s7.097 15.8518 15.852 15.8518z" fill="#b3caf8"/><path d="m340.796 98.3328h-23.866v16.7152h23.866z" fill="#76f7ff"/><path d="m293.264 72.3394c5.075 0 9.188-4.1136 9.188-9.1881s-4.113-9.1882-9.188-9.1882c-5.074 0-9.188 4.1137-9.188 9.1882s4.114 9.1881 9.188 9.1881z" fill="#76f7ff" opacity=".43"/><path d="m300.069 115.873c-1.583 0-2.871-1.278-2.882-2.864-.011-1.592 1.271-2.892 2.863-2.902l10.707-.073.742-12.7743c.092-1.5898 1.452-2.8057 3.046-2.7112 1.589.0923 2.803 1.4557 2.711 3.0455l-.801 13.79c-.142 2.456-2.181 4.393-4.64 4.41l-11.725.079c-.007 0-.014 0-.021 0z" fill="#b3825d"/><path d="m329.326 115.776c-1.539 0-2.816-1.216-2.878-2.768-.064-1.592 1.174-2.933 2.765-2.997l10.303-.412v-12.1724c0-1.5924 1.29-2.8832 2.883-2.8832 1.592 0 2.883 1.2908 2.883 2.8832v12.8694c0 2.716-2.126 4.928-4.84 5.037l-10.998.44c-.039.002-.078.003-.118.003z" fill="#b3825d"/><path d="m363.359 118.642h-115.483c-.846 0-1.532-.686-1.532-1.532s.686-1.532 1.532-1.532h115.483c.846 0 1.531.686 1.531 1.532s-.685 1.532-1.531 1.532z" fill="#18204d"/><path d="m310.819 100.888c0-10.4535 7.398-15.0155 17.036-15.0155 9.639 0 17.869 4.562 17.869 15.0155" fill="#76f7ff"/><path d="m324.024 72.9576c.756 0 1.369-.613 1.369-1.3693 0-.7562-.613-1.3693-1.369-1.3693-.757 0-1.37.6131-1.37 1.3693 0 .7563.613 1.3693 1.37 1.3693z" fill="#f05936"/><path d="m331.66 72.9576c.757 0 1.37-.613 1.37-1.3693 0-.7562-.613-1.3693-1.37-1.3693-.756 0-1.369.6131-1.369 1.3693 0 .7563.613 1.3693 1.369 1.3693z" fill="#f05936"/><path d="m331.659 76.7347v11.5054c0 2.0851-1.69 3.7754-3.776 3.7754-2.085 0-3.776-1.6903-3.776-3.7754v-11.5054c0-.7805.237-1.5053.643-2.1069.678-1.0069 1.828-1.6691 3.133-1.6691 1.043 0 1.987.4226 2.67 1.106s1.106 1.6272 1.106 2.67z" fill="#b3825d"/><path d="m331.659 75.0312-.621 4.1481c0 2.0598-.811 4.8027-2.804 4.9881-3.678.3419-4.127-1.6904-4.127-3.7757v-7.4674c.742-1.0068 1.999-1.669 3.425-1.669 1.14 0 2.172.4225 2.918 1.106.747.6834 1.209 1.6271 1.209 2.6699z" fill="#303030"/><path d="m328.096 83.4171h-.426c-1.968 0-3.563-1.5949-3.563-3.5623v-9.8403c0-1.9674 1.595-3.5624 3.563-3.5624h.426c1.968 0 3.563 1.595 3.563 3.5624v9.8403c0 1.9674-1.595 3.5623-3.563 3.5623z" fill="#b3825d"/><path d="m324.646 68.9746 6.51-.0238c1.373-.0056 1.488-4.7385-.794-4.1711l-.429.2665c-.525-.3714-1.153-.5698-1.795-.5671l-3.51.0218c-1.026.0042-1.854.8391-1.85 1.865s.843 2.6128 1.868 2.6087z" fill="#76f7ff"/><path d="m325.574 72.3046c.198 0 .358-.1604.358-.3583 0-.1978-.16-.3582-.358-.3582s-.358.1604-.358.3582c0 .1979.16.3583.358.3583z" fill="#303030"/><path d="m328.765 72.3046c.198 0 .358-.1604.358-.3583 0-.1978-.16-.3582-.358-.3582-.197 0-.358.1604-.358.3582 0 .1979.161.3583.358.3583z" fill="#303030"/><path d="m326.997 77.1381c-.119 0-.238-.0411-.344-.1202-.176-.1314-.298-.351-.319-.5734-.031-.3251.092-.6291.212-.923l.033-.0825c.327-.8165.518-1.6757.568-2.5541l.18.0101c-.051.8977-.246 1.7762-.58 2.6108l-.034.0835c-.111.2738-.226.5568-.2.8383.017.1705.114.3457.248.446.066.0495.171.1025.299.0782l.034.1768c-.032.0064-.065.0095-.097.0095z" fill="#303030"/><path d="m326.952 79.2691c-.214 0-.367-.0349-.381-.0384l.042-.1752c.006.0013.663.1499 1.135-.2054.3-.2266.465-.6117.491-1.144l.18.0084c-.028.5893-.218 1.0201-.564 1.2804-.295.2225-.644.2742-.903.2742z" fill="#303030"/><path d="m327.952 92.904c-.12 0-.194-.0047-.209-.0057-.109-.0075-.191-.102-.184-.2112.007-.109.098-.1922.211-.184.02.0007 2.039.1219 3.42-1.1686.871-.8145 1.313-2.0186 1.313-3.5786 0-.1096.089-.1981.198-.1981.11 0 .198.0885.198.1981 0 1.6759-.485 2.9782-1.441 3.8707-1.252 1.1673-2.921 1.2774-3.506 1.2774z" fill="#b3caf8"/><path d="m362.558 113.761-11.321-.016-.003 1.718 11.322.015z" fill="#b3caf8"/><path d="m361.228 112.041-11.321-.016-.003 1.718 11.322.015z" fill="#18204d"/><path d="m362.942 110.325-11.322-.015-.002 1.717 11.322.016z" fill="#76f7ff"/><path d="m298.33 115.32h-6.916c0-1.137.922-2.058 2.058-2.058h2.799c1.137 0 2.059.921 2.059 2.058z" fill="#76f7ff"/><path d="m356.421 119.592h-96.355c-.231 0-.419-.187-.419-.418 0-.232.188-.419.419-.419h96.355c.231 0 .419.187.419.419 0 .231-.188.418-.419.418z" fill="#b3caf8"/><path d="m347.1 70.2678c2.597 0 4.702-2.1053 4.702-4.7026 0-2.597-2.105-4.7024-4.702-4.7024s-4.703 2.1054-4.703 4.7024c0 2.5973 2.106 4.7026 4.703 4.7026z" fill="#76f7ff"/><path d="m325.928 70.704-1.926.464.042.1753 1.926-.464z" fill="#303030"/><path d="m328.324 70.704-.042.1753 1.926.4633.042-.1753z" fill="#303030"/><g fill="#76f7ff"><path d="m330.236 69.7061c.049 0 .09-.0402.09-.0899 0-.0498-.041-.09-.09-.09-.05 0-.09.0402-.09.09 0 .0497.04.0899.09.0899z"/><path d="m330.147 69.313c.049 0 .09-.0402.09-.0899 0-.0498-.041-.09-.09-.09-.05 0-.09.0402-.09.09 0 .0497.04.0899.09.0899z"/><path d="m329.471 69.313c.05 0 .09-.0402.09-.0899 0-.0498-.04-.09-.09-.09s-.09.0402-.09.09c0 .0497.04.0899.09.0899z"/><path d="m329.806 69.313c.05 0 .09-.0402.09-.0899 0-.0498-.04-.09-.09-.09s-.09.0402-.09.09c0 .0497.04.0899.09.0899z"/><path d="m331.207 69.313c.05 0 .09-.0402.09-.0899 0-.0498-.04-.09-.09-.09-.049 0-.09.0402-.09.09 0 .0497.041.0899.09.0899z"/><path d="m330.536 69.313c.05 0 .09-.0402.09-.0899 0-.0498-.04-.09-.09-.09-.049 0-.09.0402-.09.09 0 .0497.041.0899.09.0899z"/><path d="m330.87 69.313c.05 0 .09-.0402.09-.0899 0-.0498-.04-.09-.09-.09-.049 0-.09.0402-.09.09 0 .0497.041.0899.09.0899z"/><path d="m331.316 69.6235c.049 0 .09-.0404.09-.09 0-.0498-.041-.0901-.09-.0901-.05 0-.09.0403-.09.0901 0 .0496.04.09.09.09z"/><path d="m330.61 69.7033c.049 0 .09-.0404.09-.0901 0-.0496-.041-.09-.09-.09-.05 0-.09.0404-.09.09 0 .0497.04.0901.09.0901z"/><path d="m330.983 69.7061c.049 0 .09-.0402.09-.0899 0-.0498-.041-.09-.09-.09-.05 0-.09.0402-.09.09 0 .0497.04.0899.09.0899z"/><path d="m331.363 69.9562c.05 0 .09-.0403.09-.09 0-.0498-.04-.09-.09-.09-.049 0-.09.0402-.09.09 0 .0497.041.09.09.09z"/><path d="m330.623 70.0465c.05 0 .09-.0402.09-.0899 0-.0498-.04-.09-.09-.09-.049 0-.09.0402-.09.09 0 .0497.041.0899.09.0899z"/><path d="m331.033 70.039c.05 0 .09-.0402.09-.09 0-.0497-.04-.0899-.09-.0899-.049 0-.09.0402-.09.0899 0 .0498.041.09.09.09z"/><path d="m331.386 70.2981c.05 0 .09-.0403.09-.09 0-.0498-.04-.09-.09-.09s-.09.0402-.09.09c0 .0497.04.09.09.09z"/><path d="m331.059 70.3824c.049 0 .09-.0402.09-.09 0-.0497-.041-.0899-.09-.0899-.05 0-.09.0402-.09.0899 0 .0498.04.09.09.09z"/><path d="m331.417 70.6414c.05 0 .09-.0403.09-.0899 0-.0498-.04-.09-.09-.09-.049 0-.09.0402-.09.09 0 .0496.041.0899.09.0899z"/><path d="m331.083 70.7258c.05 0 .09-.0402.09-.09 0-.0497-.04-.0899-.09-.0899s-.09.0402-.09.0899c0 .0498.04.09.09.09z"/><path d="m331.417 70.9865c.05 0 .09-.0404.09-.0901 0-.0496-.04-.09-.09-.09-.049 0-.09.0404-.09.09 0 .0497.041.0901.09.0901z"/><path d="m331.083 71.0692c.05 0 .09-.0404.09-.09 0-.0497-.04-.0899-.09-.0899s-.09.0402-.09.0899c0 .0496.04.09.09.09z"/><path d="m331.417 71.3298c.05 0 .09-.0402.09-.09s-.04-.09-.09-.09c-.049 0-.09.0402-.09.09s.041.09.09.09z"/><path d="m331.083 71.4218c.05 0 .09-.0404.09-.09 0-.0497-.04-.0901-.09-.0901s-.09.0404-.09.0901c0 .0496.04.09.09.09z"/><path d="m331.417 71.6807c.05 0 .09-.0402.09-.09 0-.0497-.04-.0899-.09-.0899-.049 0-.09.0402-.09.0899 0 .0498.041.09.09.09z"/><path d="m331.083 71.7726c.05 0 .09-.0402.09-.09 0-.0496-.04-.09-.09-.09s-.09.0404-.09.09c0 .0498.04.09.09.09z"/></g><path d="m245.924 71.7808 39.261 1.3709c.447.0156 1.087.497 1.428 1.074l1.615 2.7378.156.0054-1.616-2.7379c-.405-.6863-1.167-1.2602-1.7-1.2789l-39.261-1.3711c-.532-.0184-.636.5253-.231 1.2116l1.616 2.7378.154.0053-1.615-2.7376c-.34-.5769-.253-1.0329.193-1.0173z" fill="#b3caf8"/><path clip-rule="evenodd" d="m285.227 72.9735c-.056-.0122-.111-.0194-.163-.0213l-39.261-1.3711c-.366-.0126-.529.2402-.464.6222.03.174.107.3746.234.5894l1.615 2.7378.155.0053-1.616-2.7376c-.014-.0245-.028-.0486-.041-.0726-.109-.2031-.163-.3886-.166-.5406-.005-.2537.134-.4135.401-.4041l39.261 1.3709c.006.0003.012.0007.019.001.446.0284 1.072.5043 1.408 1.073l1.615 2.7377.156.0055-1.615-2.7377c-.015-.0242-.029-.048-.044-.0716-.372-.5877-.998-1.0793-1.494-1.1862zm-39.313-1.0119 39.261 1.3709c.17.006.406.1056.652.2903.24.1813.469.4284.626.6949l1.666 2.8232.585.0203-1.784-3.0218c-.215-.3655-.524-.6978-.849-.9426-.321-.2413-.681-.4142-1.001-.4253l-39.261-1.3711c-.163-.0056-.313.0315-.432.1215-.12.0907-.19.2213-.218.367-.054.2819.046.636.258.9957l1.666 2.8232.583.0202-1.783-3.0217c-.16-.272-.199-.4833-.176-.605.01-.0562.033-.087.056-.1048.025-.0188.071-.0376.151-.0349z" fill="#b3caf8" fill-rule="evenodd"/><path d="m304.668 104.572-1.04-1.764-10.974-18.5976-2.015-3.415-.155-.0055 2.015 3.415 10.973 18.5971 1.041 1.765c.339.575.254 1.032-.193 1.017l-39.261-1.371c-.447-.016-1.088-.498-1.428-1.074l-.528-.895-3.328-5.6403-.633-1.0726-3.327-5.639-.87-1.4744-3.328-5.6404-2.015-3.415-.155-.0055 2.015 3.4151 3.328 5.6403.87 1.4745 3.328 5.6389.632 1.0726 3.329 5.6408.528.895c.405.686 1.167 1.26 1.699 1.278l39.261 1.371c.533.019.637-.525.231-1.211z" fill="#b3caf8"/><path clip-rule="evenodd" d="m290.745 80.6177 2.065 3.5004 12.015 20.3619c.212.359.311.714.258.996-.028.145-.098.276-.219.366-.119.09-.269.128-.433.122l-39.261-1.371c-.319-.011-.679-.184-1-.425-.325-.245-.633-.578-.849-.943l-3.856-6.5353-8.158-13.8262-2.183-3.6994.584.0205 5.393 9.1407 4.197 7.1135 3.961 6.7132.528.895c.157.265.386.512.627.694.246.185.482.285.651.291l39.261 1.371c.081.002.127-.016.151-.035.024-.018.046-.049.057-.105.023-.122-.017-.334-.177-.605l-14.197-24.0609zm13.768 23.9483c.015.025.028.049.041.073.108.2.162.383.167.534.007.257-.131.42-.401.41l-39.261-1.371c-.006 0-.012 0-.019 0-.445-.029-1.073-.506-1.408-1.073l-14.03-23.7771-.154-.0055 14.029 23.7766c.014.024.028.048.043.071.372.588.999 1.08 1.494 1.187.056.012.11.019.163.021l39.261 1.371c.368.013.531-.243.463-.63-.031-.172-.107-.37-.232-.581l-14.03-23.777-.155-.0055z" fill="#b3caf8" fill-rule="evenodd"/><path d="m331.417 72.0331c.05 0 .09-.0403.09-.0899 0-.0498-.04-.09-.09-.09-.049 0-.09.0402-.09.09 0 .0496.041.0899.09.0899z" fill="#76f7ff"/><path d="m330.7 70.3899c.05 0 .09-.0402.09-.0899 0-.0498-.04-.09-.09-.09-.049 0-.09.0402-.09.09 0 .0497.041.0899.09.0899z" fill="#76f7ff"/><path d="m290.294 115.599h-5.694l-4.312-7.798 5.695.243z" fill="#b3caf8"/><path d="m289.644 114.548-5.55.04-.906-1.558 5.55-.041z" fill="#303030" opacity=".2"/><path d="m299.462 115.599h-24.142v-.133c0-.485.393-.877.877-.877h22.388c.484 0 .877.392.877.877z" fill="#b3caf8"/><path d="m240.192 75.2849 6.998.2444.155.0055.81.0283 39.261 1.3711.811.0282.155.0055 2.594.0905c.818.0286 1.988.9081 2.612 1.9654.623 1.056.464 1.8903-.354 1.8618l-2.593-.0906-.156-.0055-.81-.0282-39.261-1.3711-.811-.0282-.154-.0055-6.999-.2444c-.819-.0286-1.989-.9094-2.612-1.9654-.624-1.0572-.465-1.8904.354-1.8618z" fill="#76f7ff"/><path d="m291.69 84.1782-16.565-.5785 10.973 18.5973 16.566.579.81.028-10.973-18.5976z" fill="#76f7ff"/><path d="m296.732 84.3527-4.268-.1491 10.973 18.5974 4.269.149z" fill="#76f7ff"/><path d="m242.878 82.5198 3.328 5.6403 9.815.2961-3.328-5.6403z" fill="#76f7ff"/><path d="m272.063 83.4914-19.637-.6858-.811-.0283 3.328 5.6402.811.0284 19.638.6858z" fill="#76f7ff"/><path d="m333.635 115.817h-25.392v-.535c0-.555.45-1.005 1.005-1.005h23.382c.555 0 1.005.45 1.005 1.005z" fill="#76f7ff"/><path d="m316.634 138.903h-64.957c-1.722 0-3.117-1.395-3.117-3.117v-11.432c0-1.722 1.395-3.117 3.117-3.117h64.957c1.722 0 3.118 1.395 3.118 3.117v11.432c0 1.722-1.396 3.117-3.118 3.117z" fill="#b3caf8"/><path d="m363.035 138.903h-37.927c-1.721 0-3.117-1.395-3.117-3.117v-11.432c0-1.722 1.396-3.117 3.117-3.117h37.927c1.721 0 3.117 1.395 3.117 3.117v11.432c0 1.722-1.396 3.117-3.117 3.117z" fill="#b3caf8"/><path d="m368.575 130.262h-121.315c-.707 0-1.282-.575-1.282-1.283 0-.707.575-1.282 1.282-1.282h121.315c.707 0 1.283.575 1.283 1.282 0 .708-.576 1.283-1.283 1.283zm-121.315-2.18c-.494 0-.897.403-.897.897 0 .495.403.897.897.897h121.315c.495 0 .897-.402.897-.897 0-.494-.402-.897-.897-.897z" fill="#76f7ff"/><path d="m274.598 85.9619c-.034 0-.067-.0193-.082-.0524l-.188-.4094c-.021-.0451-.001-.0987.044-.1194s.098-.0012.119.0441l.189.4093c.02.0453.001.0987-.045.1196-.012.0056-.025.0082-.037.0082z" fill="#303030"/><path d="m274.038 84.7398c-.034 0-.067-.0194-.082-.0526l-.374-.8118c-.02-.0451-.001-.0987.044-.1194s.099-.0012.12.0441l.373.8118c.021.0454.001.0988-.044.1195-.012.0056-.025.0084-.037.0084zm-.747-1.6238c-.034 0-.067-.0193-.082-.0523l-.373-.8118c-.021-.0454-.001-.0988.044-.1195.045-.021.098-.0012.119.0442l.374.8118c.021.0451.001.0987-.045.1194-.012.0057-.024.0082-.037.0082zm-.747-1.6235c-.034 0-.067-.0194-.082-.0526l-.373-.8117c-.021-.0452-.001-.0988.044-.1195.045-.0204.099-.0012.119.0442l.374.8117c.021.0454.001.0988-.044.1197-.012.0054-.025.0082-.038.0082zm-.747-1.6237c-.034 0-.066-.0194-.081-.0524l-.374-.8118c-.021-.0452-.001-.0987.044-.1195s.099-.0013.12.0442l.373.8118c.021.0452.001.0987-.044.1194-.012.0057-.025.0083-.038.0083zm-.747-1.6238c-.034 0-.066-.0193-.081-.0523l-.374-.812c-.02-.0452-.001-.0987.045-.1194.044-.0211.098-.0012.119.0441l.373.8118c.021.0453.001.0987-.044.1196-.012.0057-.025.0082-.038.0082zm-.746-1.6237c-.034 0-.067-.0193-.082-.0524l-.374-.8117c-.02-.0452-.001-.0988.045-.1195.044-.0211.099-.0012.119.0442l.374.8117c.02.0452.001.0988-.045.1195-.012.0056-.025.0082-.037.0082zm-.747-1.6235c-.034 0-.067-.0194-.082-.0524l-.373-.812c-.021-.0451-.001-.0985.044-.1194.045-.0204.099-.0012.12.0441l.373.812c.021.0452.001.0986-.044.1194-.013.0057-.025.0083-.038.0083zm-.747-1.6236c-.034 0-.067-.0195-.082-.0525l-.373-.8118c-.021-.0452-.001-.0988.044-.1195.045-.0209.099-.0012.12.0442l.373.8118c.021.0451.001.0987-.044.1194-.012.0057-.025.0084-.038.0084zm-.747-1.6237c-.034 0-.066-.0194-.081-.0524l-.374-.8119c-.021-.0452-.001-.0986.044-.1195s.099-.0012.12.0442l.373.8119c.021.0452.001.0986-.044.1195-.012.0056-.025.0082-.038.0082zm-.746-1.6236c-.034 0-.067-.0193-.082-.0525l-.374-.8118c-.02-.0452-.001-.0987.045-.1195.045-.0203.098-.0012.119.0442l.373.8118c.021.0452.001.0987-.044.1194-.012.0057-.025.0084-.037.0084zm-.747-1.6237c-.034 0-.067-.0193-.082-.0524l-.373-.8117c-.021-.0454-.001-.0988.044-.1197.044-.0205.098-.0012.119.0444l.374.8117c.021.0452.001.0988-.044.1195-.013.0056-.025.0082-.038.0082zm-.747-1.6235c-.034 0-.067-.0194-.082-.0526l-.373-.8119c-.021-.0452-.001-.0988.044-.1195.045-.0209.099-.0012.12.0442l.373.8119c.021.0454.001.0988-.044.1195-.013.0056-.025.0084-.038.0084zm-.747-1.6239c-.034 0-.066-.0194-.082-.0524l-.373-.8118c-.021-.0453-.001-.0987.044-.1196s.099-.0012.12.0443l.373.8118c.021.0452.001.0987-.044.1194-.012.0057-.025.0083-.038.0083zm-.746-1.6236c-.034 0-.067-.0193-.082-.0525l-.166-.3601c-.076-.1649-.117-.3384-.121-.5159-.001-.0498.038-.0912.088-.0924.049.0058.091.0381.092.0878.004.153.039.3028.105.4452l.165.3601c.021.0453.001.0987-.044.1196-.012.0055-.025.0082-.037.0082zm.015-1.6638c-.021 0-.042-.007-.058-.0214-.038-.0325-.043-.0893-.011-.1271.211-.2477.504-.4065.825-.4478.048-.0078.094.0284.1.0781.007.0493-.028.0945-.078.1008-.276.0354-.528.1725-.71.3858-.017.0209-.043.0316-.068.0316zm27.574-.427h-.894c-.049 0-.09-.0402-.09-.09s.041-.09.09-.09h.894c.05 0 .09.0402.09.09s-.04.09-.09.09zm-1.787 0h-.894c-.05 0-.09-.0402-.09-.09s.04-.09.09-.09h.894c.05 0 .09.0402.09.09s-.04.09-.09.09zm-1.787 0h-.894c-.05 0-.09-.0402-.09-.09s.04-.09.09-.09h.894c.049 0 .09.0402.09.09s-.041.09-.09.09zm-1.787 0h-.894c-.05 0-.09-.0402-.09-.09s.04-.09.09-.09h.894c.049 0 .09.0402.09.09s-.041.09-.09.09zm-1.788 0h-.893c-.05 0-.09-.0402-.09-.09s.04-.09.09-.09h.893c.05 0 .09.0402.09.09s-.04.09-.09.09zm-1.787 0h-.893c-.05 0-.091-.0402-.091-.09s.041-.09.091-.09h.893c.05 0 .09.0402.09.09s-.04.09-.09.09zm-1.787 0h-.894c-.05 0-.09-.0402-.09-.09s.04-.09.09-.09h.894c.05 0 .09.0402.09.09s-.04.09-.09.09zm-1.787 0h-.894c-.05 0-.09-.0402-.09-.09s.04-.09.09-.09h.894c.05 0 .09.0402.09.09s-.04.09-.09.09zm-1.787 0h-.894c-.05 0-.09-.0402-.09-.09s.04-.09.09-.09h.894c.049 0 .09.0402.09.09s-.041.09-.09.09zm-1.788 0h-.893c-.05 0-.09-.0402-.09-.09s.04-.09.09-.09h.893c.05 0 .091.0402.091.09s-.041.09-.091.09zm-1.787 0h-.893c-.05 0-.09-.0402-.09-.09s.04-.09.09-.09h.893c.05 0 .09.0402.09.09s-.04.09-.09.09zm-1.787 0h-.893c-.05 0-.091-.0402-.091-.09s.041-.09.091-.09h.893c.05 0 .09.0402.09.09s-.04.09-.09.09zm-1.787 0h-.894c-.049 0-.09-.0402-.09-.09s.041-.09.09-.09h.894c.05 0 .09.0402.09.09s-.04.09-.09.09zm-1.787 0h-.894c-.05 0-.09-.0402-.09-.09s.04-.09.09-.09h.894c.05 0 .09.0402.09.09s-.04.09-.09.09zm-1.787 0h-.894c-.05 0-.09-.0402-.09-.09s.04-.09.09-.09h.894c.049 0 .09.0402.09.09s-.041.09-.09.09z" fill="#303030"/><path d="m293.265 61.5414h-.45c-.05 0-.09-.0402-.09-.09s.04-.09.09-.09h.45c.05 0 .09.0402.09.09s-.04.09-.09.09z" fill="#303030"/><path d="m276.728 87.1941c.225-.5641-.288-1.2989-1.145-1.6408-.858-.3422-1.736-.1621-1.961.4022-.225.5641.288 1.2988 1.146 1.6408.857.3421 1.735.1621 1.96-.4022z" fill="#303030"/><path d="m293.785 62.9941c-.897 0-1.645-.6908-1.668-1.5398-.011-.3968.137-.774.418-1.062.303-.3114.719-.4829 1.171-.4829.897 0 1.646.6908 1.669 1.5399.011.3969-.138.7739-.418 1.0622-.303.3113-.719.4826-1.172.4826zm-.079-2.9044c-.403 0-.773.1519-1.042.4282-.246.2529-.376.5836-.367.9314.021.7525.688 1.3646 1.488 1.3646.404 0 .774-.152 1.043-.4282.246-.2528.376-.5837.367-.9314-.021-.7526-.688-1.3646-1.489-1.3646z" fill="#303030"/><path d="m293.747 62.1622c.392 0 .71-.3178.71-.7099 0-.392-.318-.71-.71-.71s-.71.318-.71.71c0 .3921.318.7099.71.7099z" fill="#76f7ff"/><path d="m295.244 64.8295h-8.66c-.084 0-.151-.0676-.151-.1511s.067-.1511.151-.1511h8.66c.083 0 .151.0676.151.1511s-.068.1511-.151.1511z" fill="#76f7ff"/><path d="m295.244 65.7153h-8.66c-.084 0-.151-.0676-.151-.1511 0-.0837.067-.1513.151-.1513h8.66c.083 0 .151.0676.151.1513 0 .0835-.068.1511-.151.1511z" fill="#76f7ff"/><path d="m249.066 54.1149h-8.659c-.084 0-.151-.0676-.151-.1512s.067-.1512.151-.1512h8.659c.084 0 .152.0676.152.1512s-.068.1512-.152.1512z" fill="#76f7ff"/><path d="m249.066 55.3831h-8.659c-.084 0-.151-.0676-.151-.1512s.067-.1512.151-.1512h8.659c.084 0 .152.0676.152.1512s-.068.1512-.152.1512z" fill="#76f7ff"/><path d="m259.895 95.5256-3.327-5.639-1.91-.0349 3.328 5.639z" fill="#18204d"/><path d="m259.956 95.5596 4.684.1636-3.327-5.639-4.684-.1636-.811-.0282 3.328 5.6389z" fill="#18204d"/><path d="m258.616 96.5631 3.328 5.6399 1.523.036-3.328-5.6408z" fill="#18204d"/><path d="m279.592 96.2457-3.328-5.6389-6.652-.2325 3.328 5.639z" fill="#18204d"/><path d="m272.113 95.9837-3.327-5.6392-6.652-.2322 3.327 5.6391z" fill="#18204d"/><path d="m253.831 89.8236-6.653-.2325 3.327 5.6392 6.653.2322z" fill="#18204d"/><path d="m280.224 97.318-6.652-.2322 3.328 5.6402 6.652.232z" fill="#18204d"/><path d="m266.096 96.8252 3.328 5.6408 6.652.232-3.328-5.6406z" fill="#18204d"/><path d="m260.591 96.632-.811-.0282 3.328 5.6402.811.028 4.684.164-3.328-5.6405z" fill="#18204d"/><path d="m251.14 96.3026 3.328 5.6404 6.653.232-3.328-5.64z" fill="#18204d"/><path d="m302.794 103.805-.653-1.107-15.247-25.8398-1.228-2.0809c-.357-.6052-1.027-1.1092-1.496-1.1255l-37.561-1.3117c-.469-.0164-.561.4609-.204 1.0661l1.228 2.0809 2.258 3.8273 2.015 3.415 3.329 5.6403.87 1.4745 3.439 5.8284.521.8832 3.328 5.6402.14.238c.357.606 1.028 1.109 1.497 1.126l37.562 1.311c.469.017.559-.461.202-1.066z" fill="#18204d" opacity=".160784"/><g clip-path="url(#s)"><g fill="#fff"><rect fill-opacity=".6" height="5" rx="2.5" width="123" x="241.537" y="151.135"/><rect fill-opacity=".6" height="5" rx="2.5" width="67" x="269.537" y="168.135"/><rect fill-opacity=".3" height="2.78149" rx="1.39075" width="95.9614" x="255.057" y="185.135"/></g><g clip-path="url(#t)"><g filter="url(#b)"><rect fill="#fff" fill-opacity=".7" height="21.9075" rx="10.9538" width="21.9075" x="277.707" y="199.917"/></g><g filter="url(#c)"><rect fill="#fff" fill-opacity=".7" height="21.9075" rx="10.9538" width="21.9075" x="306.461" y="199.917"/></g></g></g><g clip-path="url(#u)"><path clip-rule="evenodd" d="m360.615 49.8127c6.049 0 10.954-4.9041 10.954-10.9537s-4.905-10.9538-10.954-10.9538c-6.05 0-10.954 4.9042-10.954 10.9538s4.904 10.9537 10.954 10.9537z" fill="#18204d" fill-rule="evenodd"/><path d="m363.992 38.3243-3.912 3.9114 1.602 1.6019 3.911-3.9114z" fill="#ffe458"/><path clip-rule="evenodd" d="m355.77 34.5942 3.297 3.2978c-.002.0243-.004.0491-.004.0742 0 .3643.295.6597.66.6597.364 0 .66-.2954.66-.6597 0-.3644-.296-.6597-.66-.6597-.026 0-.051.0014-.075.0042l-3.294-3.2942 5.858 1.1086h.005l1.065 3.9135-2.489 2.4895-3.914-1.0705z" fill="#b5cdfb" fill-rule="evenodd"/></g></g></g></g></svg>