<?xml version="1.0" encoding="UTF-8"?>
<svg id="_图层_2" data-name="图层 2" xmlns="http://www.w3.org/2000/svg" viewBox="0 0 26.44 23.19">
  <defs>
    <style>
      .cls-1 {
        fill: #0a66c2;
        stroke-width: 0px;
      }
    </style>
  </defs>
  <g id="Objects">
    <path class="cls-1" d="m.01,17.83c.12-2.61,1.94-6.18,5.47-10.72C9.12,2.37,12.2,0,14.73,0c1.56,0,2.88,1.44,3.96,4.33.72,2.65,1.34,5.32,2.16,7.94,1.12,3.55,1.69,4.31,2.46,4.83s3.13-.59,3.13-.59c-.36,1.09-1.6,3.07-2.97,4.13-2.03,1.56-3.67,2.14-4.55,2.22-2.09.2-3.37-1.23-3.85-4.28-.52-3.29-.88-5.34-1.08-6.14-.6-2.73-1.26-4.1-1.99-4.1-.56,0-1.4.89-2.53,2.66-1.12,1.77-1.72,3.12-1.8,4.05-.16,1.53.44,2.3,1.8,2.3.64,0-1.85,5.97-5.56,5.85-2.75-.08-4.05-1.87-3.89-5.36Z"/>
  </g>
</svg>
